<svg width="47" height="47" viewBox="0 0 47 47" fill="none" xmlns="http://www.w3.org/2000/svg">
<g id="kebab 1" clip-path="url(#clip0_1_88)">
<path id="Vector" d="M5.30725 34.1816C5.30725 35.3618 4.35082 36.3183 3.17102 36.3183C1.99122 36.3183 1.03479 35.3618 1.03479 34.1816C1.03479 33.0018 1.99122 32.0454 3.17102 32.0454C4.35082 32.0454 5.30725 33.0018 5.30725 34.1816Z" fill="#FDBC34"/>
<path id="Vector_2" d="M20.2622 12.8182L26.6713 6.40909C28.8075 4.27285 28.8075 2.13623 28.8075 2.13623C28.8075 2.13623 28.8075 0 30.9438 0C33.0804 0 33.0804 2.13623 35.2166 2.13623C37.3528 2.13623 37.3528 0 39.4895 0C41.6257 0 41.6257 2.13623 41.6257 4.27285C41.6257 6.40909 43.7619 6.40909 43.7619 6.40909C45.8985 6.40909 45.8985 8.54532 45.8985 8.54532C45.8985 10.6819 43.7619 10.6819 43.7619 12.8182C43.7619 14.9544 45.8985 14.9544 45.8985 17.091C45.8985 19.2273 43.7619 19.2273 41.6257 21.3635L35.2166 27.7726L20.2622 12.8182Z" fill="#B99E69"/>
<path id="Vector_3" d="M35.9718 27.0176L34.4611 25.5069L40.1152 19.8532C41.106 18.8623 42.1031 18.2446 42.8315 17.7959C43.0858 17.6375 43.6804 17.2702 43.7805 17.1348C43.7617 16.924 43.7617 16.9072 43.3197 16.4651C42.6852 15.8306 41.6255 14.7709 41.6255 12.8182C41.6255 10.8654 42.6852 9.8057 43.3197 9.1712L44.8301 10.6819C44.3043 11.2077 43.7617 11.7499 43.7617 12.8182C43.7617 13.8865 44.3043 14.4287 44.8301 14.9544C45.3789 15.5032 45.8984 16.0227 45.8984 17.091C45.8984 18.4117 45.0824 18.9163 43.9538 19.6134C43.2446 20.0515 42.4411 20.5479 41.6255 21.3635L35.9718 27.0176Z" fill="#A37F39"/>
<path id="Vector_4" d="M43.7617 8.54529C41.69 8.54529 39.4893 7.04746 39.4893 4.27283H41.6255C41.6255 6.38402 43.741 6.40906 43.7617 6.40906V8.54529Z" fill="#A37F39"/>
<path id="Vector_5" d="M35.2165 4.27285C33.2637 4.27285 32.204 3.21276 31.5695 2.57866C31.1275 2.13623 31.1106 2.13623 30.9436 2.13623V0C32.0119 0 32.5314 0.519486 33.0802 1.06831C33.606 1.59406 34.1481 2.13623 35.2165 2.13623V4.27285Z" fill="#A37F39"/>
<path id="Vector_6" d="M24.5347 14.9544L33.0804 6.40906C33.0804 6.40906 35.2166 4.27283 37.3528 4.27283C39.4895 4.27283 41.6257 6.40906 41.6257 8.54529C41.6257 10.6819 43.7619 10.6819 43.7619 12.8182C43.7619 14.9544 39.4895 19.2272 39.4895 19.2272L35.2166 23.5001L24.5347 14.9544Z" fill="#C5AF83"/>
<path id="Vector_7" d="M20.2622 15.0596L29.4354 5.79608C30.4008 4.82126 31.7159 4.27283 33.0878 4.27283C35.2166 4.27283 37.3528 6.40906 37.3528 8.54529C37.3528 10.6819 39.4895 10.6819 39.4895 10.6819C43.7619 10.6819 43.7619 13.5841 43.7619 14.9469V14.9618C43.7619 16.3251 43.2205 17.6324 42.2567 18.5963L33.0804 27.7725L20.2622 15.0596Z" fill="#AF0A00"/>
<path id="Vector_8" d="M30.9438 6.40912C33.9652 6.40912 35.2166 10.682 35.2166 10.682C35.2166 12.8182 37.3529 12.8182 37.3529 12.8182C38.767 12.8182 41.6257 12.8182 41.6257 17.0911C41.6257 18.3741 40.9341 19.9189 39.4895 21.3635L37.3529 23.5001L24.5347 10.682C24.5347 10.682 24.5558 10.7027 26.692 8.56647C28.8283 6.42985 30.9438 6.40912 30.9438 6.40912Z" fill="#C11107"/>
<path id="Vector_9" d="M28.8283 6.40912C28.8283 8.54535 30.9438 10.682 33.0804 10.682C35.2166 10.682 35.2166 12.8182 35.2166 12.8182C35.2166 14.9544 37.3529 17.0911 39.4895 17.0911C41.6257 17.0911 41.6257 19.2273 41.6257 19.2273L37.3529 23.5001L24.5347 10.682L28.8283 6.40912Z" fill="#C82E25"/>
<path id="Vector_10" d="M13.1199 46.9999C6.44519 46.9999 1.03479 41.5895 1.03479 34.9148C1.03479 31.7098 2.30808 28.6359 4.57418 26.3694L24.5345 6.40912L27.0377 8.91189C30.9064 12.781 33.0802 18.0283 33.0802 23.5001C33.0802 28.9716 33.0431 32.0826 29.1739 35.9518L21.6652 43.4605C19.3987 45.7266 16.3248 46.9999 13.1199 46.9999Z" fill="#FDBC34"/>
<path id="Vector_11" d="M31.7477 16.2688C31.4152 15.3675 31.0201 14.4901 30.5652 13.644C28.601 13.101 26.5728 12.8233 24.5347 12.8182C21.9756 12.8182 19.7537 12.8366 17.6445 13.2993L12.0839 18.8599C15.9894 14.9544 19.2065 14.9544 24.5347 14.9544C26.9984 14.9579 29.4413 15.4031 31.7477 16.2688Z" fill="#FDAB00"/>
<path id="Vector_12" d="M1.03479 34.9147C1.03479 41.5894 6.44519 46.9998 13.1199 46.9998C16.3248 46.9998 19.3987 45.7265 21.6652 43.4604L41.6255 23.5001L39.1228 20.997C35.2536 17.1282 30.0063 14.9544 24.5345 14.9544C19.0631 14.9544 15.952 14.9916 12.0829 18.8607L4.57418 26.3694C2.30808 28.6359 1.03479 31.7098 1.03479 34.9147Z" fill="#FDCF6D"/>
<g id="Group">
<path id="Vector_13" d="M13.1207 46.9999C6.44911 46.992 1.04261 41.5855 1.03479 34.914H5.30725C5.30725 38.0743 7.21073 40.9233 10.1305 42.1324C13.0499 43.3419 16.4105 42.6734 18.6449 40.4386L35.5712 23.5103C32.5619 20.7455 28.6212 19.2159 24.5345 19.2273V14.9544C30.0091 14.9388 35.2618 17.1145 39.122 20.9966L41.6255 23.5001L21.666 43.4597C19.4046 45.7336 16.3276 47.0085 13.1207 46.9999Z" fill="#FDBC34"/>
<path id="Vector_14" d="M30.9437 29.9093C30.9437 31.0891 29.9873 32.0455 28.8075 32.0455C27.6277 32.0455 26.6713 31.0891 26.6713 29.9093C26.6713 28.7291 27.6277 27.7726 28.8075 27.7726C29.9873 27.7726 30.9437 28.7291 30.9437 29.9093Z" fill="#FDBC34"/>
<path id="Vector_15" d="M26.6713 19.2273C26.6713 20.4071 25.7149 21.3635 24.5347 21.3635C23.3549 21.3635 22.3984 20.4071 22.3984 19.2273C22.3984 18.0475 23.3549 17.0911 24.5347 17.0911C25.7149 17.0911 26.6713 18.0475 26.6713 19.2273Z" fill="#FDBC34"/>
<path id="Vector_16" d="M15.989 35.2499C15.989 35.8398 15.5106 36.3183 14.9207 36.3183C14.3308 36.3183 13.8528 35.8398 13.8528 35.2499C13.8528 34.6601 14.3308 34.1816 14.9207 34.1816C15.5106 34.1816 15.989 34.6601 15.989 35.2499Z" fill="#FDBC34"/>
<path id="Vector_17" d="M20.2619 29.9093C20.2619 31.0891 19.3054 32.0455 18.1252 32.0455C16.9454 32.0455 15.989 31.0891 15.989 29.9093C15.989 28.7291 16.9454 27.7726 18.1252 27.7726C19.3054 27.7726 20.2619 28.7291 20.2619 29.9093Z" fill="#FDBC34"/>
<path id="Vector_18" d="M15.989 24.568C15.989 25.1579 15.5106 25.6363 14.9207 25.6363C14.3308 25.6363 13.8528 25.1579 13.8528 24.568C13.8528 23.9781 14.3308 23.5001 14.9207 23.5001C15.5106 23.5001 15.989 23.9781 15.989 24.568Z" fill="#FDBC34"/>
<path id="Vector_19" d="M30.9436 22.4318C30.9436 23.0217 30.4656 23.5001 29.8757 23.5001C29.2858 23.5001 28.8074 23.0217 28.8074 22.4318C28.8074 21.8419 29.2858 21.3635 29.8757 21.3635C30.4656 21.3635 30.9436 21.8419 30.9436 22.4318Z" fill="#FDBC34"/>
</g>
<path id="Vector_20" d="M26.6713 12.8182C26.6713 13.998 25.7149 14.9544 24.5347 14.9544C23.3549 14.9544 22.3984 13.998 22.3984 12.8182C22.3984 11.6384 23.3549 10.6819 24.5347 10.6819C25.7149 10.6819 26.6713 11.6384 26.6713 12.8182Z" fill="#FDAB00"/>
<path id="Vector_21" d="M24.5347 9.6136C24.5347 10.2035 24.0566 10.6819 23.4667 10.6819C22.8768 10.6819 22.3984 10.2035 22.3984 9.6136C22.3984 9.0237 22.8768 8.54529 23.4667 8.54529C24.0566 8.54529 24.5347 9.0237 24.5347 9.6136Z" fill="#FDAB00"/>
<path id="Vector_22" d="M24.5347 33.1137C24.5347 33.7036 24.0566 34.1816 23.4667 34.1816C22.8768 34.1816 22.3984 33.7036 22.3984 33.1137C22.3984 32.5238 22.8768 32.0454 23.4667 32.0454C24.0566 32.0454 24.5347 32.5238 24.5347 33.1137Z" fill="#FDBC34"/>
<path id="Vector_23" d="M15.9895 42.7273C15.9895 43.9071 15.0331 44.8635 13.8533 44.8635C12.6735 44.8635 11.7167 43.9071 11.7167 42.7273C11.7167 41.5471 12.6735 40.5907 13.8533 40.5907C15.0331 40.5907 15.9895 41.5471 15.9895 42.7273Z" fill="#FDBC34"/>
<path id="Vector_24" d="M7.44388 28.841C7.44388 29.4309 6.96546 29.9093 6.37556 29.9093C5.78566 29.9093 5.30725 29.4309 5.30725 28.841C5.30725 28.2511 5.78566 27.7726 6.37556 27.7726C6.96546 27.7726 7.44388 28.2511 7.44388 28.841Z" fill="#FDBC34"/>
</g>
<defs>
<clipPath id="clip0_1_88">
<rect width="47" height="47" fill="white"/>
</clipPath>
</defs>
</svg>
