<svg width="47" height="47" viewBox="0 0 47 47" fill="none" xmlns="http://www.w3.org/2000/svg">
<g id="salmon 1">
<path id="Vector" d="M46.9999 19.2272C46.9999 10.9682 38.4545 2.13654 23.5001 2.13654C6.40909 2.13654 0 13.1044 0 21.3638V27.7729C0 36.0319 8.38494 44.8635 21.3635 44.8635C38.4545 44.8635 46.9999 33.8956 46.9999 25.6363V19.2272ZM30.3513 20.2955C31.666 19.6387 33.3665 19.2272 35.25 19.2272C37.1335 19.2272 38.834 19.6387 40.1487 20.2955C38.834 20.9523 37.1335 21.3638 35.25 21.3638C33.3665 21.3638 31.666 20.9523 30.3513 20.2955Z" fill="#3B292A"/>
<path id="Vector_2" d="M30.3513 20.2955C31.666 19.6387 33.3665 19.2272 35.25 19.2272C37.1335 19.2272 38.834 19.6387 40.1487 20.2955C38.834 20.9523 37.1335 21.3638 35.25 21.3638H46.9999V19.2272C46.9999 10.9682 38.4545 2.13654 23.5001 2.13654C6.40909 2.13654 0 13.1044 0 21.3638H35.25C33.3665 21.3638 31.666 20.9523 30.3513 20.2955Z" fill="#7D1A00"/>
<path id="Vector_3" d="M23.5001 2.13654C6.40909 2.13654 0 13.1044 0 21.3638C0 29.6228 8.38494 38.4545 21.3635 38.4545C38.4545 38.4545 46.9999 27.4866 46.9999 19.2272C46.9999 10.9682 38.4545 2.13654 23.5001 2.13654ZM35.25 21.3638C31.1203 21.3638 27.7726 19.4506 27.7726 17.091C27.7726 14.731 31.1203 12.8181 35.25 12.8181C39.3797 12.8181 42.7274 14.731 42.7274 17.091C42.7274 19.4506 39.3797 21.3638 35.25 21.3638Z" fill="#CD3E36"/>
<path id="Vector_4" d="M2.13628 19.2271H1.06836V17.0909H2.13628C2.51612 17.047 3.85747 16.2604 4.65861 15.791C6.92667 14.4641 9.73886 12.818 12.8182 12.818C15.2197 12.818 17.5206 13.3938 19.7449 13.9508C21.8228 14.4696 23.7693 14.9546 25.6364 14.9546H26.7047V17.0909H25.6364C23.5064 17.0909 21.4367 16.5745 19.2461 16.028C17.1263 15.498 14.9568 14.9546 12.8182 14.9546C10.319 14.9546 7.78414 16.438 5.74765 17.6303C4.05384 18.6223 2.97927 19.2271 2.13628 19.2271Z" fill="#C82E25"/>
<path id="Vector_5" d="M4.27285 21.3638H2.13623C2.13623 7.84463 16.1103 4.27277 23.5001 4.27277V6.409C16.8489 6.409 4.27285 9.53453 4.27285 21.3638Z" fill="#D96C66"/>
<path id="Vector_6" d="M21.3635 38.4545C8.58522 38.4545 0 29.6169 0 21.3638H2.13623C2.13623 28.5854 9.86203 36.3182 21.3635 36.3182C37.3948 36.3182 44.8636 26.1194 44.8636 19.2272H46.9999C46.9999 26.9811 38.8532 38.4545 21.3635 38.4545Z" fill="#7D1A00"/>
<g id="Group">
<path id="Vector_7" d="M12.6679 34.1714C4.59586 33.0186 2.27186 25.1942 2.17798 24.8613L4.23089 24.2718C4.31225 24.5503 6.29006 31.1026 12.9683 32.0559L12.6679 34.1714Z" fill="#ECB8B5"/>
<path id="Vector_8" d="M8.54529 20.2974L6.40906 20.2954C6.40906 20.1816 6.53854 8.83857 17.7627 4.349L18.5556 6.33306C8.70176 10.2738 8.54764 19.8906 8.54529 20.2974Z" fill="#ECB8B5"/>
<path id="Vector_9" d="M27.7724 36.3182C12.0169 36.3182 10.6962 22.6582 10.6857 22.5205L12.8137 22.3409C12.8575 22.824 14.0154 34.1819 27.7724 34.1819V36.3182Z" fill="#ECB8B5"/>
</g>
<path id="Vector_10" d="M15.157 31.7387C11.1658 27.778 10.7026 22.7333 10.6858 22.5205L12.8138 22.3402C12.8181 22.3848 13.248 26.8329 16.663 30.2221L15.157 31.7387Z" fill="#D96C66"/>
<path id="Vector_11" d="M36.3183 27.7729C24.827 27.7729 23.5208 18.3865 23.5083 18.2915L25.6281 18.0223C25.6696 18.3333 26.7524 25.6363 36.3183 25.6363V27.7729Z" fill="#ECB8B5"/>
<path id="Vector_12" d="M28.0229 25.4434C24.0986 22.6719 23.5314 18.4691 23.5083 18.2915L25.6281 18.0223C25.632 18.0568 26.1226 21.4866 29.2539 23.6991L28.0229 25.4434Z" fill="#D96C66"/>
<path id="Vector_13" d="M32.0454 32.0454C19.5632 32.0454 17.1348 20.6198 17.1117 20.5052L19.2065 20.0839C19.2878 20.4844 21.3427 29.9091 32.0454 29.9091V32.0454Z" fill="#ECB8B5"/>
<path id="Vector_14" d="M21.3177 27.9638C17.9797 24.6975 17.1449 20.6742 17.1117 20.5052L19.2065 20.0839C19.2127 20.1191 19.9614 23.6471 22.8116 26.4366L21.3177 27.9638Z" fill="#D96C66"/>
<path id="Vector_15" d="M17.0869 18.2477L14.9589 18.0705C14.9694 17.9328 16.29 4.27277 32.0456 4.27277V6.409C18.2323 6.409 17.1287 17.765 17.0869 18.2477Z" fill="#ECB8B5"/>
<path id="Vector_16" d="M23.4666 18.4209L21.3949 17.9003C21.4199 17.8064 23.8421 8.54559 33.1139 8.54559C39.7733 8.54559 42.1642 10.7444 42.4146 10.9948L40.9038 12.5051C40.8976 12.5 38.8822 10.6818 33.1139 10.6818C25.5281 10.6818 23.548 18.1049 23.4666 18.4209Z" fill="#ECB8B5"/>
<path id="Vector_17" d="M12.8182 25.6363C10.3315 25.6363 8.45579 25.0104 6.80149 24.4576C5.2575 23.9432 3.92436 23.5 2.13628 23.5H1.06836V21.3638H2.13628C4.2729 21.3638 5.90021 21.906 7.4751 22.4309C9.12354 22.9805 10.6796 23.5 12.8182 23.5C14.9545 23.5 17.1263 22.4141 19.2273 21.3638C21.4242 20.2654 23.5002 19.2272 25.6364 19.2272H26.7047V21.3638H25.6364C24.0048 21.3638 22.1483 22.2921 20.183 23.2747C17.8609 24.4357 15.4595 25.6363 12.8182 25.6363Z" fill="#D96C66"/>
<path id="Vector_18" d="M2.13623 19.2272C4.27285 19.2272 8.54532 14.9547 12.8182 14.9547C17.091 14.9547 21.3635 17.0909 25.6364 17.0909V19.2272C21.3635 19.2272 17.091 23.5 12.8182 23.5C8.54532 23.5 6.40909 21.3638 2.13623 21.3638V19.2272Z" fill="#ECB8B5"/>
<path id="Vector_19" d="M12.8183 23.4999C10.6821 23.4999 9.05475 22.9574 7.47947 22.4328C6.09 21.9696 4.77994 21.5327 3.12134 21.402L3.28798 19.2721C5.20945 19.4235 6.70532 19.923 8.15347 20.4061C9.69707 20.9201 11.0302 21.3637 12.8183 21.3637C14.4499 21.3637 16.3064 20.4351 18.2717 19.4524C20.2245 18.476 22.2442 17.4664 24.4265 17.1734L24.7101 19.2909C22.8826 19.5361 21.0237 20.4656 19.2274 21.3637C17.0305 22.4621 14.9545 23.4999 12.8183 23.4999Z" fill="#E59B96"/>
<path id="Vector_20" d="M44.8637 17.0909H42.7275C42.7275 14.7344 39.3727 12.818 35.2501 12.818C31.1275 12.818 27.7727 14.7344 27.7727 17.0909H25.6365C25.6365 13.4368 29.7693 10.6818 35.2501 10.6818C40.7309 10.6818 44.8637 13.4368 44.8637 17.0909Z" fill="#C11107"/>
</g>
</svg>
