<svg width="47" height="52" viewBox="0 0 47 52" fill="none" xmlns="http://www.w3.org/2000/svg">
<g id="Image" clip-path="url(#clip0_1_34)">
<path id="Vector" d="M44.8466 26.0001C42.7104 37.818 36.3013 49.6363 36.3013 49.6363C36.3013 49.6363 34.1647 51.9998 23.4831 51.9998C12.8012 51.9998 10.6649 49.6363 10.6649 49.6363C10.6649 49.6363 4.25583 37.818 2.1192 26.0001H44.8466Z" fill="#C82E25"/>
<path id="Vector_2" d="M27.9133 51.8431L27.6191 47.1274C30.6903 46.892 32.397 46.4246 33.2126 46.1277C34.3881 43.7884 37.3447 37.5943 39.3319 30.7271H32.0485V26.0001H44.9469L44.2459 28.9626C42.0564 38.2119 37.8035 46.789 36.5529 49.1988L36.22 49.8384L35.618 50.1544C34.7054 50.6348 32.4917 51.4934 27.9133 51.8431Z" fill="#AF0A00"/>
<path id="Vector_3" d="M22.6989 51.989C22.7008 51.9886 22.7067 51.9808 22.709 51.9808C26.0259 46.8552 30.6942 37.8111 32.0285 26.0001H2.1192C4.25584 37.818 10.665 49.6363 10.665 49.6363C10.665 49.6363 12.7163 51.8734 22.6989 51.989Z" fill="#D2514A"/>
<path id="Vector_4" d="M23.471 42.5454C19.0918 42.5454 15.374 40.7658 13.0249 37.6046C12.241 37.7509 11.4473 37.8223 10.6528 37.818V33.091C11.6644 33.091 12.525 32.956 13.2104 32.6894L14.8514 32.051L15.7483 33.6991C16.5862 35.2377 18.7049 37.818 23.471 37.818C27.2201 37.818 29.325 36.1968 30.4309 34.8361L33.608 37.9981C31.2234 40.9307 27.6238 42.5454 23.471 42.5454Z" fill="#C82E25"/>
<path id="Vector_5" d="M36.3089 37.818C34.8138 37.818 33.4768 37.593 32.3345 37.1489L33.751 32.6894C35.0478 33.1936 37.2779 33.346 38.6204 32.4678L40.7965 36.5348C39.4966 37.3865 37.9863 37.818 36.3089 37.818Z" fill="#AF0A00"/>
<path id="Vector_6" d="M42.7218 18.9092C42.7218 18.9092 40.5852 0 23.4945 0C6.40348 0 4.26724 18.9092 4.26724 18.9092C4.26724 18.9092 -0.00561523 18.9092 -0.00561523 23.6362C-0.00561523 28.3636 6.40348 28.3636 6.40348 28.3636C6.40348 28.3636 6.40348 33.0911 10.6763 33.0911C14.9488 33.0911 14.9488 30.7271 14.9488 30.7271C14.9488 33.0911 17.0854 37.818 23.4945 37.818C29.9036 37.818 32.0398 33.0911 32.0398 30.7271C32.0398 30.7271 32.0398 33.0911 36.3127 33.0911C40.5852 33.0911 40.5852 28.3636 40.5852 28.3636C40.5852 28.3636 46.9943 28.3636 46.9943 23.6362C46.9943 18.9092 42.7218 18.9092 42.7218 18.9092Z" fill="#FDCF6D"/>
<path id="Vector_7" d="M36.3189 30.7271C38.1559 30.7271 38.4458 29.2375 38.4551 28.3498L38.4594 26.0071L40.5863 26.0001C40.6258 26.0001 44.8642 25.8569 44.8642 23.6362C44.8642 21.6038 43.5174 21.2831 42.7155 21.2727L42.7405 18.9092C44.8611 18.9369 47.0005 20.4093 47.0005 23.6362C47.0005 27.3747 42.8094 28.3623 40.5914 28.3636V28.3658C40.5663 30.7237 39.2355 33.0911 36.3189 33.0911V30.7271Z" fill="#FDBC34"/>
<path id="Vector_8" d="M12.9695 49.1101C8.66654 41.9694 6.52483 34.9421 6.43604 34.6465L8.46196 33.8986C8.48269 33.9679 10.6099 40.9333 14.747 47.7991L12.9695 49.1101Z" fill="#D96C66"/>
<path id="Vector_9" d="M17.0854 7.09088C6.40348 7.09088 4.26724 18.9092 4.26724 18.9092C4.26724 18.9092 -0.00561523 18.9092 -0.00561523 23.6362C-0.00561523 28.3636 6.40348 28.3636 6.40348 28.3636C6.40348 28.3636 6.40348 33.091 10.6763 33.091C14.9488 33.091 14.9488 30.7271 14.9488 30.7271C14.9488 33.091 17.0854 37.818 23.4945 37.818C32.0398 37.818 34.1761 7.09088 17.0854 7.09088Z" fill="#FEE3AA"/>
<path id="Vector_10" d="M23.4945 37.8181C18.0055 37.8181 15.6729 34.3652 15.0971 31.9091H14.4461C13.8422 32.5726 12.6549 33.0911 10.6763 33.0911C7.7597 33.0911 6.42851 30.7202 6.40348 28.3706L6.39604 28.3637C4.18783 28.3637 -0.00561523 27.3756 -0.00561523 23.6362C-0.00561523 20.4093 2.13688 18.937 4.26098 18.9093L5.12354 18.8989L5.14662 21.2624L4.28485 21.2727C3.48058 21.2831 2.13062 21.6038 2.13062 23.6362C2.13062 25.8569 6.36905 26.0002 6.41169 26.0002L8.51468 26.0209L8.53971 28.3429C8.5491 29.234 8.83935 30.7271 10.6763 30.7271C12.0689 30.7271 12.6635 30.4307 12.8595 30.2991L12.9616 29.5456H17.0854V30.7271C17.0854 31.7256 18.1733 35.4546 23.4945 35.4546V37.8181Z" fill="#FDCF6D"/>
<path id="Vector_11" d="M21.3665 7.09091C21.3665 8.39622 20.41 9.4544 19.2302 9.4544C18.0504 9.4544 17.094 8.39622 17.094 7.09091C17.094 5.7856 18.0504 4.72742 19.2302 4.72742C20.41 4.72742 21.3665 5.7856 21.3665 7.09091Z" fill="#993B17"/>
<path id="Vector_12" d="M32.0252 4.72739C32.0252 6.0327 31.0688 7.09088 29.889 7.09088C28.7088 7.09088 27.7524 6.0327 27.7524 4.72739C27.7524 3.42165 28.7088 2.36346 29.889 2.36346C31.0688 2.36346 32.0252 3.42165 32.0252 4.72739Z" fill="#993B17"/>
<path id="Vector_13" d="M27.7747 23.6362C27.7747 24.9419 26.8183 26.0001 25.6385 26.0001C24.4587 26.0001 23.5023 24.9419 23.5023 23.6362C23.5023 22.3309 24.4587 21.2727 25.6385 21.2727C26.8183 21.2727 27.7747 22.3309 27.7747 23.6362Z" fill="#AD6143"/>
<path id="Vector_14" d="M38.4331 14.1818C38.4331 15.4871 37.4767 16.5453 36.2969 16.5453C35.1167 16.5453 34.1603 15.4871 34.1603 14.1818C34.1603 12.8765 35.1167 11.8183 36.2969 11.8183C37.4767 11.8183 38.4331 12.8765 38.4331 14.1818Z" fill="#993B17"/>
<path id="Vector_15" d="M14.9252 16.5453C14.9252 17.8511 13.9688 18.9092 12.789 18.9092C11.6093 18.9092 10.6528 17.8511 10.6528 16.5453C10.6528 15.24 11.6093 14.1818 12.789 14.1818C13.9688 14.1818 14.9252 15.24 14.9252 16.5453Z" fill="#AD6143"/>
<path id="Vector_16" d="M28.8375 12.9998C28.8375 14.3056 27.881 15.3638 26.7012 15.3638C25.521 15.3638 24.5645 14.3056 24.5645 12.9998C24.5645 11.6945 25.521 10.6364 26.7012 10.6364C27.881 10.6364 28.8375 11.6945 28.8375 12.9998Z" fill="#FDCF6D"/>
<path id="Vector_17" d="M32.0252 14.1818C32.0252 15.4871 31.0688 16.5453 29.889 16.5453C28.7088 16.5453 27.7524 15.4871 27.7524 14.1818C27.7524 12.8765 28.7088 11.8183 29.889 11.8183C31.0688 11.8183 32.0252 12.8765 32.0252 14.1818Z" fill="#FDCF6D"/>
<path id="Vector_18" d="M21.355 17.7273C21.355 18.3799 20.877 18.9092 20.2871 18.9092C19.6972 18.9092 19.2188 18.3799 19.2188 17.7273C19.2188 17.0746 19.6972 16.5453 20.2871 16.5453C20.877 16.5453 21.355 17.0746 21.355 17.7273Z" fill="#FDCF6D"/>
<path id="Vector_19" d="M42.7166 26.0002C42.7166 27.3055 41.7602 28.3636 40.58 28.3636C39.4002 28.3636 38.4438 27.3055 38.4438 26.0002C38.4438 24.6944 39.4002 23.6362 40.58 23.6362C41.7602 23.6362 42.7166 24.6944 42.7166 26.0002Z" fill="#FDBC34"/>
<path id="Vector_20" d="M29.8999 30.7271C29.8999 32.0329 28.9435 33.0911 27.7634 33.0911C26.5836 33.0911 25.6272 32.0329 25.6272 30.7271C25.6272 29.4218 26.5836 28.3636 27.7634 28.3636C28.9435 28.3636 29.8999 29.4218 29.8999 30.7271Z" fill="#FDCF6D"/>
<path id="Vector_21" d="M36.3083 23.6362C36.3083 24.9419 35.3518 26.0001 34.1716 26.0001C32.9918 26.0001 32.0354 24.9419 32.0354 23.6362C32.0354 22.3309 32.9918 21.2727 34.1716 21.2727C35.3518 21.2727 36.3083 22.3309 36.3083 23.6362Z" fill="#FDBC34"/>
<g id="Group">
<path id="Vector_22" d="M14.9468 29.5455C14.9468 30.1982 14.4688 30.7271 13.8789 30.7271C13.2891 30.7271 12.8107 30.1982 12.8107 29.5455C12.8107 28.8929 13.2891 28.3636 13.8789 28.3636C14.4688 28.3636 14.9468 28.8929 14.9468 29.5455Z" fill="#FDCF6D"/>
<path id="Vector_23" d="M21.3334 26.0001C21.3334 27.3054 20.3769 28.3636 19.1971 28.3636C18.0173 28.3636 17.0609 27.3054 17.0609 26.0001C17.0609 24.6944 18.0173 23.6362 19.1971 23.6362C20.3769 23.6362 21.3334 24.6944 21.3334 26.0001Z" fill="#FDCF6D"/>
<path id="Vector_24" d="M10.6754 11.8183C10.6754 13.1236 9.71895 14.1818 8.53876 14.1818C7.35896 14.1818 6.40253 13.1236 6.40253 11.8183C6.40253 10.5125 7.35896 9.45435 8.53876 9.45435C9.71895 9.45435 10.6754 10.5125 10.6754 11.8183Z" fill="#FDCF6D"/>
<path id="Vector_25" d="M14.9468 8.27284C14.9468 8.9255 14.4688 9.45437 13.8789 9.45437C13.2891 9.45437 12.8107 8.9255 12.8107 8.27284C12.8107 7.62019 13.2891 7.09088 13.8789 7.09088C14.4688 7.09088 14.9468 7.62019 14.9468 8.27284Z" fill="#FDCF6D"/>
</g>
</g>
<defs>
<clipPath id="clip0_1_34">
<rect width="47" height="52" fill="white" transform="translate(-0.00561523)"/>
</clipPath>
</defs>
</svg>
