<svg width="12" height="11" viewBox="0 0 12 11" fill="none" xmlns="http://www.w3.org/2000/svg">
<g id="favorite 4" clip-path="url(#clip0_1_327)">
<path id="Vector" d="M11.3812 4.08249C11.3004 3.82968 11.0588 3.65592 10.7184 3.60572L8.01944 3.20734L6.81241 0.723356C6.66019 0.410124 6.42282 0.230469 6.16114 0.230469C5.89946 0.230469 5.66209 0.410124 5.50989 0.723356L4.3029 3.20732L1.60386 3.6057C1.2635 3.6559 1.02193 3.82968 0.941048 4.08245C0.86019 4.33523 0.955071 4.62002 1.20131 4.86383L3.15435 6.79731L2.69329 9.52757C2.63267 9.88669 2.73563 10.1015 2.8327 10.2184C2.94624 10.3551 3.11187 10.4305 3.29909 10.4305C3.44063 10.4305 3.59138 10.3883 3.74705 10.3052L6.16114 9.0161L8.57523 10.3051C8.73094 10.3883 8.88167 10.4304 9.02323 10.4304H9.02327C9.21051 10.4304 9.37614 10.3551 9.48968 10.2183C9.58674 10.1015 9.68971 9.88667 9.62907 9.52752L9.16795 6.79733L11.121 4.86387C11.3672 4.62006 11.4621 4.33525 11.3812 4.08249Z" fill="#FF8412"/>
</g>
<defs>
<clipPath id="clip0_1_327">
<rect width="10.4966" height="10.6609" fill="white" transform="translate(0.912842)"/>
</clipPath>
</defs>
</svg>
