<svg width="47" height="47" viewBox="0 0 47 47" fill="none" xmlns="http://www.w3.org/2000/svg">
<g id="pizza 1" clip-path="url(#clip0_1_66)">
<path id="Vector" d="M0.0270996 46.9999L47.027 32.0455C47.027 14.3473 32.6797 0 14.9815 0L0.0270996 46.9999Z" fill="#F59707"/>
<path id="Vector_2" d="M24.6216 21.3616C23.2048 21.3659 21.845 20.8034 20.8456 19.7988L22.3559 18.2885C23.5659 19.4964 25.6814 19.4964 26.8874 18.2885C28.1364 17.0363 28.1364 15.0092 26.8874 13.7571L28.3977 12.2467C29.9257 13.7735 30.383 16.0705 29.556 18.0663C28.7294 20.0617 26.7817 21.3624 24.6216 21.3616Z" fill="#EF7F00"/>
<path id="Vector_3" d="M2.68347 41.6653L44.226 28.4705L45.5196 32.543L3.9771 45.7379L2.68347 41.6653Z" fill="#E76400"/>
<path id="Vector_4" d="M38.4685 32.0454C38.4685 19.0876 27.9262 8.54529 14.9684 8.54529C14.0835 8.54412 13.2214 8.26599 12.5024 7.74963L11.1837 11.895C12.3561 12.4935 13.6521 12.8095 14.9684 12.8182C25.5709 12.8182 34.1957 21.4441 34.1957 32.0454C34.2039 33.3617 34.5203 34.6577 35.1188 35.8301L39.2638 34.5114C38.7478 33.7924 38.4697 32.9303 38.4685 32.0454Z" fill="#E76400"/>
<path id="Vector_5" d="M14.9916 0C12.632 0 10.7188 1.91287 10.7188 4.27286C10.7188 6.63245 12.632 8.54532 14.9916 8.54532C27.9702 8.54532 38.4917 19.0669 38.4917 32.0455C38.4917 34.405 40.4046 36.3183 42.7642 36.3183C45.1242 36.3183 47.0371 34.405 47.0371 32.0455C47.0371 14.3473 32.6898 0 14.9916 0Z" fill="#FDCF6D"/>
<path id="Vector_6" d="M47.0216 32.0455C47.0216 34.4051 45.1088 36.3184 42.7489 36.3184C40.3894 36.3184 38.4766 34.4051 38.4766 32.0455C38.4766 29.6859 40.3894 27.7726 42.7489 27.7726C45.1088 27.7726 47.0216 29.6859 47.0216 32.0455Z" fill="#FDBC34"/>
<path id="Vector_7" d="M44.8745 32.0455C44.8745 33.2253 43.9181 34.1817 42.7379 34.1817C41.5581 34.1817 40.6017 33.2253 40.6017 32.0455C40.6017 30.8657 41.5581 29.9092 42.7379 29.9092C43.9181 29.9092 44.8745 30.8657 44.8745 32.0455Z" fill="#FDAB00"/>
<path id="Vector_8" d="M13.9061 17.091V12.8181C14.4964 12.8185 14.9756 12.3401 14.9756 11.7498C14.9756 11.1595 14.4964 10.6811 13.9061 10.6819V6.40906C16.856 6.40906 19.2473 8.80034 19.2473 11.7498C19.2473 14.6997 16.856 17.091 13.9061 17.091Z" fill="#C82E25"/>
<path id="Vector_9" d="M9.65187 32.0454C6.70197 32.0454 4.31067 29.6541 4.31067 26.7046C4.31067 23.7547 6.70197 21.3635 9.65187 21.3635V25.6363C9.06197 25.6363 8.58355 26.1147 8.58355 26.7046C8.58355 27.2945 9.06197 27.7725 9.65187 27.7725V32.0454Z" fill="#C82E25"/>
<path id="Vector_10" d="M31.0338 27.7725C28.0855 27.7694 25.6962 25.3801 25.6931 22.4318H29.9655C29.9651 23.0221 30.4435 23.5009 31.0338 23.5009C31.624 23.5009 32.1024 23.0221 32.1021 22.4318H36.3744C36.3713 25.3801 33.982 27.7694 31.0338 27.7725Z" fill="#C82E25"/>
<path id="Vector_11" d="M17.1425 32.0435C15.4424 32.0486 13.8104 31.373 12.6111 30.1678L14.1218 28.6574C15.7323 30.2679 18.5531 30.2679 20.1636 28.6574C21.83 26.9879 21.83 24.2848 20.1636 22.6153L21.6739 21.1049C23.5073 22.9372 24.0558 25.6938 23.0637 28.0887C22.0717 30.4831 19.7344 32.0443 17.1425 32.0435Z" fill="#EF7F00"/>
<g id="Group">
<path id="Vector_12" d="M21.3892 25.6364C21.3892 27.996 19.4763 29.9093 17.1163 29.9093C14.7567 29.9093 12.8439 27.996 12.8439 25.6364C12.8439 23.2768 14.7567 21.3636 17.1163 21.3636C19.4763 21.3636 21.3892 23.2768 21.3892 25.6364Z" fill="#8B2800"/>
<path id="Vector_13" d="M27.8193 33.1138C27.8193 34.8835 26.3845 36.3183 24.6148 36.3183C22.8451 36.3183 21.4103 34.8835 21.4103 33.1138C21.4103 31.3437 22.8451 29.9092 24.6148 29.9092C26.3845 29.9092 27.8193 31.3437 27.8193 33.1138Z" fill="#8B2800"/>
<path id="Vector_14" d="M8.58356 38.4545C8.58356 39.6343 7.62712 40.5908 6.44731 40.5908C5.26711 40.5908 4.31067 39.6343 4.31067 38.4545C4.31067 37.2747 5.26711 36.3183 6.44731 36.3183C7.62712 36.3183 8.58356 37.2747 8.58356 38.4545Z" fill="#8B2800"/>
<path id="Vector_15" d="M27.8193 16.0228C27.8193 17.7925 26.3845 19.2273 24.6148 19.2273C22.8451 19.2273 21.4103 17.7925 21.4103 16.0228C21.4103 14.2531 22.8451 12.8182 24.6148 12.8182C26.3845 12.8182 27.8193 14.2531 27.8193 16.0228Z" fill="#8B2800"/>
</g>
<path id="Vector_16" d="M38.5293 24.0184C38.5105 23.9453 36.422 16.0935 28.6384 10.254C23.0555 6.06794 13.8651 5.49526 13.7736 5.49017L14.0196 1.22357C14.4472 1.24861 24.599 1.88388 31.2002 6.83661C40.2486 13.6224 42.5788 22.6027 42.6727 22.9814L38.5293 24.0184Z" fill="#FEE3AA"/>
</g>
<defs>
<clipPath id="clip0_1_66">
<rect width="47" height="47" fill="white" transform="translate(-0.00585938)"/>
</clipPath>
</defs>
</svg>
