<svg width="52" height="47" viewBox="0 0 52 47" fill="none" xmlns="http://www.w3.org/2000/svg">
<g id="doughnut 1" clip-path="url(#clip0_1_144)">
<path id="Vector" d="M51.8675 22.3758C51.8675 11.1978 40.2633 2.13654 25.9487 2.13654C11.6337 2.13654 0.0294189 11.1978 0.0294189 22.3758V24.6243C0.0294189 35.8023 11.6337 44.8635 25.9487 44.8635C40.2633 44.8635 51.8675 35.8023 51.8675 24.6243V22.3758ZM25.9487 29.1221C21.0069 29.1221 16.7903 26.7938 15.0408 23.5C16.7903 20.2063 21.0069 17.878 25.9487 17.878C30.8901 17.878 35.1066 20.2063 36.8561 23.5C35.1066 26.7938 30.8901 29.1221 25.9487 29.1221Z" fill="#FDBC34"/>
<path id="Vector_2" d="M25.9487 44.8635C11.6565 44.8635 0.0294189 35.7842 0.0294189 24.6247V22.3754H4.74213V24.6247C4.74213 33.4286 14.2547 40.5911 25.9487 40.5911C37.6427 40.5911 47.1552 33.4286 47.1552 24.6247V22.3754H51.8675V24.6247C51.8675 35.7842 40.2404 44.8635 25.9487 44.8635Z" fill="#F59707"/>
<path id="Vector_3" d="M49.5114 14.9547C47.1552 12.8181 49.5114 10.6819 47.1552 8.54563C45.4752 7.02237 42.537 7.38461 40.0864 6.409C39.4297 6.00413 38.0486 4.56146 37.7298 4.27277C35.3737 2.13654 25.9487 2.13654 25.9487 2.13654H21.236C16.5233 2.13654 14.1671 4.27277 11.811 4.27277C9.45441 4.27277 7.09827 6.409 7.09827 6.409C7.09827 6.409 4.74213 8.54563 4.79175 10.6819C4.79175 10.6819 4.74213 12.8181 2.38556 14.9547C0.0294189 17.091 0.0294189 19.2272 0.0294189 19.2272C0.0294189 19.2272 0.0294189 21.3638 2.38556 23.5C2.82262 23.8814 3.13757 24.363 3.29721 24.8934C3.32784 24.9717 3.34898 25.0534 3.38134 25.1309C3.69112 26.7234 2.38556 28.3162 2.38556 29.9091C2.38556 32.0454 4.74213 32.0454 4.74213 32.0454C7.09827 32.0454 7.09827 34.182 7.09827 34.182C7.09827 36.3182 9.45441 36.3182 9.45441 36.3182C11.811 36.3182 11.811 38.4545 11.811 38.4545C11.811 40.5911 14.1671 40.5911 14.1671 40.5911C14.1671 40.5911 16.5233 40.5911 16.5233 38.4545C16.5233 36.3182 18.8798 36.3182 18.8798 36.3182C21.236 36.3182 21.236 38.4545 21.236 38.4545C21.236 38.4545 21.236 42.7273 25.9487 42.7273C30.661 42.7273 30.661 38.4545 30.661 38.4545C30.661 36.3182 33.0175 36.3182 33.0175 36.3182C33.0175 36.3182 35.3737 36.3182 35.3737 38.4545C35.3737 40.5911 37.7298 40.5911 37.7298 40.5911C40.0864 40.5911 40.0864 38.4545 40.0864 38.4545V36.3182C40.0864 34.182 42.4425 34.182 42.4425 34.182C42.4425 34.182 44.7987 34.182 44.7987 32.0454C44.7987 29.9091 47.1552 29.9091 47.1552 29.9091C49.5114 29.9091 49.5114 27.7729 49.5114 27.7729C49.5114 25.7129 51.8675 25.6363 51.8675 21.3638C51.8675 19.2272 51.8675 17.091 49.5114 14.9547ZM37.7298 18.1593C37.7298 22.2886 32.4553 25.6363 25.9487 25.6363C19.442 25.6363 14.1671 22.2886 14.1671 18.1593C14.1671 14.0296 19.442 10.6819 25.9487 10.6819C32.4553 10.6819 37.7298 14.0296 37.7298 18.1593Z" fill="#993B17"/>
<path id="Vector_4" d="M25.9487 32.0454C15.3773 32.0454 7.09827 25.9453 7.09827 18.1593C7.09827 17.6359 7.13667 17.1132 7.21346 16.5945L9.54674 16.8781C9.48461 17.303 9.45397 17.7309 9.45441 18.1593C9.45441 24.7475 16.7006 29.9091 25.9487 29.9091C35.1963 29.9091 42.4425 24.7475 42.4425 18.1593H44.7987C44.7987 25.9453 36.5196 32.0454 25.9487 32.0454Z" fill="#AD6143"/>
<path id="Vector_5" d="M25.9486 32.0453C21.3097 32.0453 16.8822 30.8436 13.4836 28.6593L14.8457 26.9154C17.8512 28.8451 21.7929 29.9091 25.9486 29.9091C29.7661 29.9091 33.3234 29.0434 36.2365 27.4056L37.4791 29.2206C34.191 31.0689 30.2031 32.0453 25.9486 32.0453Z" fill="#C28A73"/>
<path id="Vector_6" d="M44.0119 11.6958C43.7543 11.5874 42.7374 11.4184 42.3551 11.3559C41.0897 11.147 39.6836 10.9154 38.1903 10.3208L37.4379 9.94331C36.5634 9.40505 35.6983 8.57692 34.6581 7.55242L34.52 7.41042C33.7516 7.03919 30.1365 6.4133 25.9463 6.409H21.2361C19.409 6.409 18.1595 6.88076 16.7098 7.42528C15.3085 7.95103 13.7233 8.54562 11.8112 8.54562C11.3128 8.78503 10.8508 9.08076 10.4348 9.42578C9.93349 9.89519 9.53527 10.586 9.50291 10.784L7.14893 10.7507C7.14893 9.77862 8.11796 8.52254 8.76901 7.91543C9.34198 7.41042 10.8033 6.409 11.8112 6.409C13.2561 6.409 14.4939 5.94389 15.8055 5.45139C17.3475 4.87166 18.9395 4.27277 21.2361 4.27277H25.9489C29.1312 4.27707 34.5226 4.74218 35.9951 5.73304L36.4072 6.11914C37.2977 6.99538 38.0984 7.76718 38.7612 8.17635L39.1408 8.36607C40.3787 8.85857 41.6372 9.06707 42.7486 9.24857C44.4261 9.52592 45.0845 9.68865 45.4892 10.056L44.6565 10.8113L44.0119 11.6958Z" fill="#AD6143"/>
<path id="Vector_7" d="M38.1881 10.3188L37.4378 9.94331C36.5633 9.40504 35.6982 8.57692 34.658 7.55242L34.5199 7.41042C33.7515 7.03919 30.139 6.4133 25.9462 6.409H21.2361V4.27277H25.9488C29.1286 4.27707 34.5225 4.74218 35.9951 5.73304L36.4071 6.11913C37.2976 6.99538 38.0984 7.76717 38.7611 8.17635L39.1408 8.36607L38.1881 10.3188Z" fill="#C28A73"/>
<path id="Vector_8" d="M25.9487 42.7273C22.7318 42.7273 21.2636 40.5848 21.236 38.4607C21.236 38.4274 21.2084 36.3182 18.8798 36.3182C18.8565 36.3182 16.5233 36.3432 16.5233 38.4544C16.5233 39.7187 15.6051 40.5574 14.1831 40.591C12.7403 40.5574 11.811 39.698 11.811 38.4544C11.811 38.4337 11.7834 36.3182 9.45441 36.3182C8.01164 36.2849 7.09827 35.4462 7.09827 34.182C7.09827 34.1608 7.07066 32.0453 4.74213 32.0453C3.29937 32.0121 2.38556 31.1734 2.38556 29.9091C2.38556 29.1893 2.65262 28.4676 2.90804 27.7705C3.22775 26.9005 3.55219 26.0079 3.3822 25.1316L3.32698 24.9771C3.16777 24.4162 2.84203 23.9053 2.38556 23.5C0.162736 21.4846 0.0363221 19.4693 0.0294189 19.2459C0.0479713 18.8058 0.238671 16.9012 2.38556 14.9547C4.69596 12.8599 4.79045 10.7695 4.79261 10.6799L7.14875 10.7256C7.14184 11.0323 6.99688 13.7944 4.05181 16.465C2.47314 17.8964 2.38556 19.244 2.38556 19.2565C2.38815 19.2565 2.47789 20.5626 4.05181 21.9897C4.79692 22.6535 5.33106 23.4875 5.59812 24.4032L5.67621 24.6559C5.97521 26.1682 5.51744 27.4243 5.14942 28.432C4.94664 28.9828 4.74213 29.5355 4.74213 29.9091C7.80239 29.9091 9.45441 32.1103 9.45441 34.182C12.5151 34.182 14.1671 36.3827 14.1671 38.4544C14.1671 35.6798 16.5949 34.182 18.8798 34.182C21.9401 34.182 23.5921 36.3808 23.5921 38.4482C23.6016 39.2411 23.9213 40.591 25.9487 40.591C27.9735 40.591 28.2932 39.2454 28.3048 38.4419C28.3048 35.6798 30.7326 34.182 33.0175 34.182C35.3025 34.182 37.7298 35.6798 37.7298 38.4544V36.3182C37.7298 33.5436 40.1507 32.0453 42.4287 32.0453C42.4425 29.2707 44.8703 27.7729 47.1552 27.7729C47.1552 26.2602 47.8982 25.2963 48.4392 24.5953C49.0165 23.8485 49.5114 23.2101 49.5114 21.3638C49.5114 19.3961 49.5114 17.9754 47.8455 16.465C45.9769 14.7708 45.9769 12.9538 45.9769 11.7501C45.9769 10.7777 45.9562 10.4796 45.489 10.0559L47.1552 8.54559C48.3331 9.61351 48.3331 10.7006 48.3331 11.7501C48.3331 12.8494 48.3331 13.8864 49.5114 14.9547C51.8675 17.0909 51.8675 19.2627 51.8675 21.3638C51.8675 23.8838 51.0391 24.954 50.3743 25.8138C49.9096 26.4166 49.5114 26.9318 49.5114 27.7729C49.4747 29.081 48.5497 29.9091 47.1552 29.9091C47.1319 29.9091 44.7987 29.9341 44.7987 32.0453C44.7987 33.3096 43.8805 34.1483 42.4585 34.182C42.4058 34.182 40.0864 34.207 40.0864 36.3182V38.4544C40.0493 39.7625 39.1242 40.591 37.7298 40.591C36.287 40.5574 35.3737 39.7187 35.3737 38.4544C35.3737 36.3432 33.0404 36.3182 33.0175 36.3182C32.9942 36.3182 30.661 36.3432 30.661 38.4544C30.6333 40.5867 29.1656 42.7273 25.9487 42.7273Z" fill="#8B2800"/>
<g id="Group">
<path id="Vector_9" d="M14.1671 29.9091C14.1671 31.0889 13.1122 32.0454 11.8109 32.0454C10.5092 32.0454 9.45435 31.0889 9.45435 29.9091C9.45435 28.7293 10.5092 27.7729 11.8109 27.7729C13.1122 27.7729 14.1671 28.7293 14.1671 29.9091Z" fill="#7D1A00"/>
<path id="Vector_10" d="M18.8797 8.54562C18.8797 9.72542 17.8248 10.6819 16.5231 10.6819C15.2219 10.6819 14.167 9.72542 14.167 8.54562C14.167 7.36543 15.2219 6.409 16.5231 6.409C17.8248 6.409 18.8797 7.36543 18.8797 8.54562Z" fill="#7D1A00"/>
<path id="Vector_11" d="M9.45434 17.091C9.45434 18.2708 8.39945 19.2272 7.0982 19.2272C5.79696 19.2272 4.74207 18.2708 4.74207 17.091C4.74207 15.9112 5.79696 14.9548 7.0982 14.9548C8.39945 14.9548 9.45434 15.9112 9.45434 17.091Z" fill="#7D1A00"/>
<path id="Vector_12" d="M47.1552 25.6362C47.1552 26.8164 46.1003 27.7729 44.7986 27.7729C43.4974 27.7729 42.4425 26.8164 42.4425 25.6362C42.4425 24.4564 43.4974 23.5 44.7986 23.5C46.1003 23.5 47.1552 24.4564 47.1552 25.6362Z" fill="#7D1A00"/>
<path id="Vector_13" d="M35.3737 32.0454C35.3737 33.2255 34.3188 34.182 33.0176 34.182C31.7159 34.182 30.661 33.2255 30.661 32.0454C30.661 30.8656 31.7159 29.9091 33.0176 29.9091C34.3188 29.9091 35.3737 30.8656 35.3737 32.0454Z" fill="#7D1A00"/>
<path id="Vector_14" d="M23.5919 29.9091C23.5919 31.0889 22.537 32.0454 21.2358 32.0454C19.9345 32.0454 18.8796 31.0889 18.8796 29.9091C18.8796 28.7293 19.9345 27.7729 21.2358 27.7729C22.537 27.7729 23.5919 28.7293 23.5919 29.9091Z" fill="#7D1A00"/>
<path id="Vector_15" d="M28.3046 4.27277C28.3046 5.45256 27.2497 6.409 25.9485 6.409C24.6468 6.409 23.5919 5.45256 23.5919 4.27277C23.5919 3.09297 24.6468 2.13654 25.9485 2.13654C27.2497 2.13654 28.3046 3.09297 28.3046 4.27277Z" fill="#7D1A00"/>
<path id="Vector_16" d="M40.0864 6.409C40.0864 7.58919 39.0315 8.54562 37.7298 8.54562C36.4285 8.54562 35.3737 7.58919 35.3737 6.409C35.3737 5.2292 36.4285 4.27277 37.7298 4.27277C39.0315 4.27277 40.0864 5.2292 40.0864 6.409Z" fill="#7D1A00"/>
<path id="Vector_17" d="M47.1552 14.9547C47.1552 16.1345 46.1003 17.0909 44.7986 17.0909C43.4974 17.0909 42.4425 16.1345 42.4425 14.9547C42.4425 13.7745 43.4974 12.8181 44.7986 12.8181C46.1003 12.8181 47.1552 13.7745 47.1552 14.9547Z" fill="#7D1A00"/>
</g>
<path id="Vector_18" d="M25.9486 27.7729C18.1523 27.7729 11.8109 23.4605 11.8109 18.1592H14.1671C14.1671 22.2815 19.4527 25.6362 25.9486 25.6362C32.4445 25.6362 37.7297 22.2815 37.7297 18.1592H40.0863C40.0863 23.4605 33.7445 27.7729 25.9486 27.7729Z" fill="#8B2800"/>
<path id="Vector_19" d="M37.7297 18.1592H33.0174C33.0174 16.8823 30.1983 14.9546 25.9486 14.9546C21.6984 14.9546 18.8797 16.8823 18.8797 18.1592H14.167C14.167 14.0365 19.4527 10.6818 25.9486 10.6818C32.4444 10.6818 37.7297 14.0365 37.7297 18.1592Z" fill="#F59707"/>
</g>
<defs>
<clipPath id="clip0_1_144">
<rect width="51.8382" height="47" fill="white" transform="translate(0.0294189)"/>
</clipPath>
</defs>
</svg>
