<svg width="100" height="100" viewBox="0 0 100 100" fill="none" xmlns="http://www.w3.org/2000/svg">
<path d="M99.9997 40.9088C99.9997 23.3365 81.8182 4.54572 50.0003 4.54572C13.6364 4.54572 0 27.8817 0 45.4548V59.0912C0 76.6635 17.8403 95.4543 45.4543 95.4543C81.8182 95.4543 99.9997 72.1183 99.9997 54.5452V40.9088ZM64.5771 43.1818C67.3745 41.7844 70.9925 40.9088 75 40.9088C79.0075 40.9088 82.6255 41.7844 85.4229 43.1818C82.6255 44.5792 79.0075 45.4548 75 45.4548C70.9925 45.4548 67.3745 44.5792 64.5771 43.1818Z" fill="#3B292A"/>
<path d="M64.5771 43.1818C67.3745 41.7844 70.9925 40.9088 75 40.9088C79.0075 40.9088 82.6255 41.7844 85.4229 43.1818C82.6255 44.5792 79.0075 45.4548 75 45.4548H99.9997V40.9088C99.9997 23.3365 81.8182 4.54572 50.0003 4.54572C13.6364 4.54572 0 27.8817 0 45.4548H75C70.9925 45.4548 67.3745 44.5792 64.5771 43.1818Z" fill="#7D1A00"/>
<path d="M50.0003 4.54572C13.6364 4.54572 0 27.8817 0 45.4548C0 63.0271 17.8403 81.8179 45.4543 81.8179C81.8182 81.8179 99.9997 58.4819 99.9997 40.9088C99.9997 23.3365 81.8182 4.54572 50.0003 4.54572ZM75 45.4548C66.2134 45.4548 59.0906 41.384 59.0906 36.3636C59.0906 31.3424 66.2134 27.2724 75 27.2724C83.7866 27.2724 90.9094 31.3424 90.9094 36.3636C90.9094 41.384 83.7866 45.4548 75 45.4548Z" fill="#CD3E36"/>
<path d="M4.54512 40.9087H2.27295V36.3635H4.54512C5.35328 36.2703 8.20723 34.5966 9.91178 33.5978C14.7374 30.7746 20.7208 27.2723 27.2727 27.2723C32.3821 27.2723 37.2777 28.4975 42.0102 29.6827C46.4313 30.7863 50.5728 31.8183 54.5454 31.8183H56.8184V36.3635H54.5454C50.0135 36.3635 45.6099 35.2649 40.949 34.1022C36.4388 32.9744 31.8228 31.8183 27.2727 31.8183C21.9551 31.8183 16.5618 34.9744 12.2289 37.5113C8.62504 39.622 6.33872 40.9087 4.54512 40.9087Z" fill="#C82E25"/>
<path d="M9.09118 45.4548H4.54517C4.54517 16.6906 34.2773 9.09088 50.0003 9.09088V13.6361C35.8487 13.6361 9.09118 20.2861 9.09118 45.4548Z" fill="#D96C66"/>
<path d="M45.4543 81.818C18.2664 81.818 0 63.0147 0 45.4549H4.54518C4.54518 60.8199 20.9831 77.2728 45.4543 77.2728C79.5635 77.2728 95.4545 55.5731 95.4545 40.9089H99.9997C99.9997 57.4067 82.6663 81.818 45.4543 81.818Z" fill="#7D1A00"/>
<path d="M26.9529 72.7051C9.77846 70.2523 4.83378 53.6046 4.63403 52.8964L9.00193 51.6421C9.17505 52.2347 13.3831 66.1757 27.5921 68.204L26.9529 72.7051Z" fill="#ECB8B5"/>
<path d="M18.1814 43.186L13.6362 43.1818C13.6362 42.9396 13.9117 18.8055 37.7928 9.25323L39.4799 13.4746C18.5143 21.8592 18.1864 42.3204 18.1814 43.186Z" fill="#ECB8B5"/>
<path d="M59.0904 77.2727C25.5679 77.2727 22.7581 48.2089 22.7356 47.916L27.2633 47.5339C27.3565 48.5618 29.8201 72.7275 59.0904 72.7275V77.2727Z" fill="#ECB8B5"/>
<path d="M32.2488 67.5291C23.7568 59.1021 22.7714 48.3688 22.7356 47.916L27.2633 47.5323C27.2724 47.6272 28.1871 57.0913 35.4531 64.3023L32.2488 67.5291Z" fill="#D96C66"/>
<path d="M77.2731 59.0912C52.8235 59.0912 50.0445 39.1203 50.0178 38.918L54.528 38.3454C54.6163 39.0071 56.9201 54.5452 77.2731 54.5452V59.0912Z" fill="#ECB8B5"/>
<path d="M59.6233 54.1349C51.2738 48.2381 50.0669 39.2959 50.0178 38.918L54.528 38.3454C54.5364 38.4186 55.5801 45.7162 62.2426 50.4237L59.6233 54.1349Z" fill="#D96C66"/>
<path d="M68.1817 68.1816C41.624 68.1816 36.4571 43.8719 36.408 43.628L40.8649 42.7316C41.038 43.5839 45.4101 63.6365 68.1817 63.6365V68.1816Z" fill="#ECB8B5"/>
<path d="M45.3568 59.4975C38.2548 52.5478 36.4787 43.9876 36.408 43.628L40.8649 42.7316C40.8782 42.8065 42.4712 50.313 48.5354 56.2482L45.3568 59.4975Z" fill="#D96C66"/>
<path d="M36.3551 38.8247L31.8274 38.4477C31.8499 38.1547 34.6597 9.09088 68.1822 9.09088V13.6361C38.7921 13.6361 36.4441 37.7977 36.3551 38.8247Z" fill="#ECB8B5"/>
<path d="M49.9288 39.1934L45.521 38.0856C45.5743 37.8858 50.7278 18.182 70.455 18.182C84.624 18.182 89.711 22.8604 90.2437 23.393L87.0293 26.6065C87.016 26.5957 82.728 22.7272 70.455 22.7272C54.3151 22.7272 50.102 38.5209 49.9288 39.1934Z" fill="#ECB8B5"/>
<path d="M27.2727 54.5452C21.9818 54.5452 17.9909 53.2136 14.4711 52.0375C11.186 50.9431 8.34955 50.0001 4.54512 50.0001H2.27295V45.4549H4.54512C9.09113 45.4549 12.5535 46.6084 15.9043 47.7254C19.4116 48.8948 22.7225 50.0001 27.2727 50.0001C31.8179 50.0001 36.4388 47.6896 40.909 45.4549C45.5832 43.1178 50.0002 40.9089 54.5454 40.9089H56.8184V45.4549H54.5454C51.0739 45.4549 47.1238 47.4299 42.9423 49.5207C38.0018 51.9909 32.8923 54.5452 27.2727 54.5452Z" fill="#D96C66"/>
<path d="M4.54517 40.9089C9.09118 40.9089 18.1815 31.8185 27.2727 31.8185C36.3639 31.8185 45.4543 36.3637 54.5454 36.3637V40.9089C45.4543 40.9089 36.3639 50.0001 27.2727 50.0001C18.1815 50.0001 13.6364 45.4549 4.54517 45.4549V40.9089Z" fill="#ECB8B5"/>
<path d="M27.2729 50C22.7277 50 19.2654 48.8456 15.9137 47.7295C12.9574 46.744 10.1701 45.8144 6.64111 45.5364L6.99567 41.0045C11.0839 41.3266 14.2666 42.3895 17.3478 43.4173C20.632 44.511 23.4685 45.4548 27.2729 45.4548C30.7444 45.4548 34.6945 43.4789 38.876 41.3882C43.0308 39.3108 47.3279 37.1626 51.9713 36.5392L52.5747 41.0445C48.6863 41.5663 44.7312 43.5439 40.9093 45.4548C36.2351 47.7919 31.8181 50 27.2729 50Z" fill="#E59B96"/>
<path d="M95.4547 36.3635H90.9095C90.9095 31.3498 83.7717 27.2724 75.0002 27.2724C66.2286 27.2724 59.0908 31.3498 59.0908 36.3635H54.5457C54.5457 28.589 63.3389 22.7272 75.0002 22.7272C86.6615 22.7272 95.4547 28.589 95.4547 36.3635Z" fill="#C11107"/>
</svg>
